<mxfile host="app.diagrams.net" agent="Mozilla/5.0 (Windows NT 10.0; Win64; x64) AppleWebKit/537.36 (KHTML, like Gecko) Chrome/140.0.0.0 Safari/537.36" version="28.2.5">
  <diagram name="Страница — 1" id="9DhelWSyhl0QUsL7-kSb">
    <mxGraphModel dx="815" dy="444" grid="1" gridSize="10" guides="1" tooltips="1" connect="1" arrows="1" fold="1" page="1" pageScale="1" pageWidth="827" pageHeight="1169" math="0" shadow="0">
      <root>
        <mxCell id="0" />
        <mxCell id="1" parent="0" />
        <mxCell id="C_ARW5nbqazC5Btug-v4-5" value="" style="edgeStyle=orthogonalEdgeStyle;rounded=0;orthogonalLoop=1;jettySize=auto;html=1;" edge="1" parent="1" source="C_ARW5nbqazC5Btug-v4-3" target="C_ARW5nbqazC5Btug-v4-4">
          <mxGeometry relative="1" as="geometry" />
        </mxCell>
        <mxCell id="C_ARW5nbqazC5Btug-v4-3" value="Начало" style="ellipse;whiteSpace=wrap;html=1;" vertex="1" parent="1">
          <mxGeometry x="280" y="160" width="160" height="80" as="geometry" />
        </mxCell>
        <mxCell id="C_ARW5nbqazC5Btug-v4-7" value="" style="edgeStyle=orthogonalEdgeStyle;rounded=0;orthogonalLoop=1;jettySize=auto;html=1;" edge="1" parent="1" source="C_ARW5nbqazC5Btug-v4-4" target="C_ARW5nbqazC5Btug-v4-6">
          <mxGeometry relative="1" as="geometry" />
        </mxCell>
        <mxCell id="C_ARW5nbqazC5Btug-v4-4" value="&lt;div&gt;&lt;br&gt;&lt;/div&gt;&lt;div&gt;&lt;font style=&quot;font-size: 9px;&quot;&gt;V1 = 2.0, t1 = 21.0&lt;/font&gt;&lt;/div&gt;&lt;div&gt;&lt;font style=&quot;font-size: 9px;&quot;&gt;V2 = 3.0, t2 = 40.0&lt;/font&gt;&lt;/div&gt;&lt;div&gt;&lt;font style=&quot;font-size: 9px;&quot;&gt;V3 = 5.0, t3 = 36.0&lt;/font&gt;&lt;/div&gt;&lt;div&gt;&lt;font style=&quot;font-size: 9px;&quot;&gt;V, T&lt;/font&gt;&lt;/div&gt;&lt;div&gt;&lt;br&gt;&lt;/div&gt;" style="shape=parallelogram;perimeter=parallelogramPerimeter;whiteSpace=wrap;html=1;fixedSize=1;" vertex="1" parent="1">
          <mxGeometry x="280" y="280" width="160" height="80" as="geometry" />
        </mxCell>
        <mxCell id="C_ARW5nbqazC5Btug-v4-10" value="" style="edgeStyle=orthogonalEdgeStyle;rounded=0;orthogonalLoop=1;jettySize=auto;html=1;" edge="1" parent="1" source="C_ARW5nbqazC5Btug-v4-6" target="C_ARW5nbqazC5Btug-v4-9">
          <mxGeometry relative="1" as="geometry" />
        </mxCell>
        <mxCell id="C_ARW5nbqazC5Btug-v4-6" value="V = V1 + V2 + V3" style="whiteSpace=wrap;html=1;" vertex="1" parent="1">
          <mxGeometry x="280" y="400" width="158.91" height="80" as="geometry" />
        </mxCell>
        <mxCell id="C_ARW5nbqazC5Btug-v4-12" value="" style="edgeStyle=orthogonalEdgeStyle;rounded=0;orthogonalLoop=1;jettySize=auto;html=1;" edge="1" parent="1" source="C_ARW5nbqazC5Btug-v4-9" target="C_ARW5nbqazC5Btug-v4-11">
          <mxGeometry relative="1" as="geometry" />
        </mxCell>
        <mxCell id="C_ARW5nbqazC5Btug-v4-9" value="&lt;font style=&quot;font-size: 10px;&quot;&gt;T = (V1 * t1 + V2 * t2 + V3 * t3) / V&lt;/font&gt;" style="whiteSpace=wrap;html=1;" vertex="1" parent="1">
          <mxGeometry x="280" y="520" width="160" height="80" as="geometry" />
        </mxCell>
        <mxCell id="C_ARW5nbqazC5Btug-v4-14" value="" style="edgeStyle=orthogonalEdgeStyle;rounded=0;orthogonalLoop=1;jettySize=auto;html=1;" edge="1" parent="1" source="C_ARW5nbqazC5Btug-v4-11" target="C_ARW5nbqazC5Btug-v4-13">
          <mxGeometry relative="1" as="geometry" />
        </mxCell>
        <mxCell id="C_ARW5nbqazC5Btug-v4-11" value="V1, V2, V3&lt;br&gt;t1, t2, t3&lt;div&gt;V, T&lt;/div&gt;" style="shape=parallelogram;perimeter=parallelogramPerimeter;whiteSpace=wrap;html=1;fixedSize=1;" vertex="1" parent="1">
          <mxGeometry x="280" y="640" width="160" height="80" as="geometry" />
        </mxCell>
        <mxCell id="C_ARW5nbqazC5Btug-v4-13" value="" style="ellipse;whiteSpace=wrap;html=1;" vertex="1" parent="1">
          <mxGeometry x="280" y="760" width="160" height="80" as="geometry" />
        </mxCell>
      </root>
    </mxGraphModel>
  </diagram>
</mxfile>
